# xmcd
#
# Track frame offsets: 
#        150
#        21788
#        44786
#        63206
#        91537
#        106626
#        123462
#        154064
#        167848
#        193593
#        211403
#        228832
#        244371
#        271764
#        312352
#
# Disc length: 4331 seconds
#
# Revision: 0
# Processed by: cddbd v1.4PL0 Copyright (c) Steve Scherf et al.
# Submitted via: ExactAudioCopy v0.90b4
#
DISCID=c210e90f
DTITLE=Dumpy's Rusty Nuts - Somewhere In England
DYEAR=1900
DGENRE=Blues
TTITLE0=It's Got To Be Blues
TTITLE1=Ride With Me
TTITLE2=I'm A Hog For You Baby
TTITLE3=Rip It Up
TTITLE4=Night Rider
TTITLE5=Woke Up This Morning
TTITLE6=Look In The Mirror
TTITLE7=Whole Lot Of Blues
TTITLE8=Out Of Reach
TTITLE9=Boxhill Or Bust
TTITLE10=Tush
TTITLE11=Just For Kicks
TTITLE12=Wee Wee Baby
TTITLE13=Wild Thing
TTITLE14=Route 66
EXTD=
EXTT0=
EXTT1=
EXTT2=
EXTT3=
EXTT4=
EXTT5=
EXTT6=
EXTT7=
EXTT8=
EXTT9=
EXTT10=
EXTT11=
EXTT12=
EXTT13=
EXTT14=
PLAYORDER=
